<svg width="24" height="24" viewBox="0 0 24 24" fill="none" xmlns="http://www.w3.org/2000/svg">
<path d="M11.0939 11.9748L15.6276 7.94286C15.8661 7.72946 16 7.44078 16 7.13988C16 6.83898 15.8661 6.55031 15.6276 6.33691C15.5085 6.23015 15.3669 6.14542 15.2108 6.08759C15.0547 6.02977 14.8874 6 14.7183 6C14.5492 6 14.3818 6.02977 14.2258 6.08759C14.0697 6.14542 13.928 6.23015 13.809 6.33691L8.37883 11.1661C8.25879 11.272 8.16351 11.398 8.09849 11.5368C8.03348 11.6756 8 11.8245 8 11.9748C8 12.1252 8.03348 12.274 8.09849 12.4128C8.16351 12.5516 8.25879 12.6776 8.37883 12.7835L13.809 17.6697C13.9287 17.7752 14.0706 17.8588 14.2266 17.9154C14.3827 17.9721 14.5497 18.0008 14.7183 18C14.8868 18.0008 15.0539 17.9721 15.21 17.9154C15.366 17.8588 15.5079 17.7752 15.6276 17.6697C15.8661 17.4563 16 17.1676 16 16.8667C16 16.5658 15.8661 16.2771 15.6276 16.0637L11.0939 11.9748Z" fill="#1C1C1C"/>
</svg>
