<svg width="24" height="24" viewBox="0 0 24 24" fill="none" xmlns="http://www.w3.org/2000/svg">
<path d="M12.9061 12.0252L8.37242 16.0571C8.13389 16.2705 8 16.5592 8 16.8601C8 17.161 8.13389 17.4497 8.37242 17.6631C8.49148 17.7698 8.63312 17.8546 8.78919 17.9124C8.94525 17.9702 9.11265 18 9.28171 18C9.45078 18 9.61818 17.9702 9.77424 17.9124C9.93031 17.8546 10.072 17.7698 10.191 17.6631L15.6212 12.8339C15.7412 12.728 15.8365 12.602 15.9015 12.4632C15.9665 12.3244 16 12.1755 16 12.0252C16 11.8748 15.9665 11.726 15.9015 11.5872C15.8365 11.4484 15.7412 11.3224 15.6212 11.2165L10.191 6.33032C10.0713 6.22476 9.92942 6.14125 9.77338 6.08456C9.61735 6.02788 9.45026 5.99915 9.28171 6.00002C9.11317 5.99915 8.94608 6.02788 8.79005 6.08456C8.63401 6.14125 8.49209 6.22476 8.37242 6.33032C8.13389 6.54372 8 6.8324 8 7.1333C8 7.4342 8.13389 7.72287 8.37242 7.93627L12.9061 12.0252Z" fill="#1C1C1C"/>
</svg>
