<svg viewBox="0 0 24 24" fill="none" xmlns="http://www.w3.org/2000/svg">
<path d="M20.9452 2.7119C20.9444 2.70226 20.9391 2.69418 20.938 2.68461C20.9315 2.64893 20.9222 2.61381 20.9102 2.57958C20.8981 2.52875 20.8804 2.47942 20.8572 2.43253C20.8399 2.40384 20.8205 2.37642 20.7992 2.35051C20.7664 2.30457 20.7281 2.26273 20.6852 2.2259C20.673 2.21568 20.6669 2.20125 20.6539 2.19174C20.6374 2.17974 20.6179 2.17745 20.6007 2.16716C20.5538 2.13843 20.5037 2.11529 20.4514 2.09821C20.4156 2.08568 20.3788 2.07612 20.3414 2.06963C20.3209 2.06627 20.3032 2.05584 20.2821 2.0542C19.8994 2.02569 10.8783 1.38649 6.86497 5.36781C3.52832 8.67734 2.78209 12.6236 4.85134 15.7639C3.70611 17.3985 3.06306 19.3273 3 21.3169C3.00772 21.5008 3.08687 21.6746 3.22087 21.8019C3.35488 21.9293 3.53335 22.0002 3.71892 22H3.74601C3.93656 21.9926 4.11644 21.9108 4.24638 21.7723C4.37633 21.6339 4.44581 21.4501 4.43965 21.2611C4.50718 19.6676 5.01173 18.1226 5.89896 16.7925C7.46729 17.9593 9.37471 18.5904 11.3352 18.5911C13.6395 18.6023 15.8558 17.7144 17.5058 16.1189L17.605 16.0208C21.6184 12.0392 20.9743 3.09081 20.9452 2.7119ZM18.0066 12.9421C15.9416 12.1171 13.7564 11.6261 11.5345 11.4879C14.4584 9.52416 17.1477 7.237 19.5505 4.67052C19.5314 6.78482 19.2823 10.2919 18.0066 12.9421ZM14.8345 3.66592C15.0112 5.00194 14.8345 6.36058 14.3217 7.60836C12.9066 8.77289 11.4289 9.86054 9.89512 10.8665C9.80795 10.9237 9.72684 10.9818 9.64191 11.0393C9.92074 9.12942 9.80652 7.18331 9.30615 5.31843C11.0251 4.42108 12.9019 3.86004 14.8345 3.66592ZM18.7266 3.43534C18.1684 4.0579 17.3456 4.91609 16.2635 5.91519C16.4048 5.12389 16.4098 4.31456 16.2784 3.52159C17.2201 3.45114 18.064 3.43199 18.7266 3.43534ZM7.88364 6.37798C7.94005 6.32203 8.0061 6.27416 8.0651 6.22029C8.42811 8.22485 8.40436 10.2795 7.99508 12.2753C7.18469 12.9479 6.4403 13.695 5.77189 14.5067C4.4475 12.0205 5.19711 9.04267 7.88364 6.37798ZM16.4972 15.0968C15.1999 16.3268 13.5017 17.0558 11.7096 17.1518C9.91757 17.2478 8.15006 16.7045 6.72674 15.6203C7.53014 14.6077 8.4585 13.699 9.49005 12.9157C12.1441 12.7923 14.7945 13.226 17.268 14.1884C17.0642 14.4805 16.8361 14.7552 16.5862 15.0097L16.4972 15.0968Z" fill="currentColor"/>
</svg>
