<svg width="24" height="24" viewBox="0 0 24 24" fill="none" xmlns="http://www.w3.org/2000/svg">
<path d="M20.7473 19.4825L17.4102 16.17C18.7056 14.5537 19.3329 12.5021 19.1631 10.4372C18.9934 8.37227 18.0396 6.45088 16.4978 5.06813C14.9559 3.68538 12.9433 2.94636 10.8738 3.00303C8.80419 3.05971 6.83498 3.90777 5.37103 5.37283C3.90708 6.83789 3.05966 8.8086 3.00303 10.8797C2.9464 12.9509 3.68486 14.965 5.06656 16.508C6.44826 18.051 8.36819 19.0056 10.4316 19.1754C12.4949 19.3453 14.5449 18.7175 16.16 17.4212L19.47 20.7337C19.5536 20.8181 19.6531 20.8851 19.7627 20.9308C19.8723 20.9765 19.9899 21 20.1086 21C20.2274 21 20.3449 20.9765 20.4546 20.9308C20.5642 20.8851 20.6636 20.8181 20.7473 20.7337C20.9094 20.5659 21 20.3416 21 20.1081C21 19.8747 20.9094 19.6504 20.7473 19.4825ZM11.114 17.4212C9.8687 17.4212 8.65139 17.0516 7.61597 16.3593C6.58056 15.6669 5.77355 14.6828 5.297 13.5315C4.82045 12.3801 4.69577 11.1132 4.93871 9.89088C5.18165 8.6686 5.78131 7.54586 6.66186 6.66464C7.54241 5.78343 8.66429 5.18331 9.88565 4.94018C11.107 4.69706 12.373 4.82184 13.5235 5.29875C14.674 5.77566 15.6573 6.58328 16.3491 7.61948C17.041 8.65568 17.4102 9.87392 17.4102 11.1202C17.4102 12.7913 16.7469 14.394 15.5661 15.5757C14.3853 16.7573 12.7839 17.4212 11.114 17.4212Z" fill="currentColor"/>
</svg>
