<svg width="24" height="24" viewBox="0 0 24 24" fill="none" xmlns="http://www.w3.org/2000/svg">
<path d="M9.55 2.68L8.92 4.57L7.14 3.68C6.95369 3.58978 6.74397 3.5596 6.53978 3.59363C6.33558 3.62767 6.14699 3.72423 6 3.87L3.87 6C3.72209 6.14776 3.62421 6.33817 3.59013 6.54445C3.55605 6.75073 3.58748 6.96251 3.68 7.15L4.57 8.93L2.68 9.56C2.483 9.62653 2.31163 9.75283 2.18975 9.92131C2.06787 10.0898 2.00155 10.2921 2 10.5L2 13.5C1.99946 13.7096 2.06482 13.9142 2.18685 14.0846C2.30887 14.2551 2.48138 14.3829 2.68 14.45L4.57 15.08L3.68 16.86C3.58978 17.0463 3.55961 17.256 3.59364 17.4602C3.62767 17.6644 3.72423 17.853 3.87 18L6 20.13C6.14777 20.2779 6.33818 20.3758 6.54446 20.4099C6.75074 20.444 6.96251 20.4125 7.15 20.32L8.93 19.43L9.56 21.32C9.62654 21.517 9.75283 21.6884 9.92131 21.8102C10.0898 21.9321 10.2921 21.9985 10.5 22H13.5C13.7096 22.0005 13.9142 21.9352 14.0846 21.8132C14.2551 21.6911 14.3829 21.5186 14.45 21.32L15.08 19.43L16.86 20.32C17.0463 20.4102 17.256 20.4404 17.4602 20.4064C17.6644 20.3723 17.853 20.2758 18 20.13L20.13 18C20.2779 17.8522 20.3758 17.6618 20.4099 17.4555C20.444 17.2493 20.4125 17.0375 20.32 16.85L19.43 15.07L21.32 14.44C21.5186 14.3729 21.6911 14.2451 21.8132 14.0746C21.9352 13.9042 22.0005 13.6996 22 13.49V10.49C22.0005 10.2804 21.9352 10.0758 21.8132 9.90537C21.6911 9.7349 21.5186 9.60708 21.32 9.54L19.43 8.91L20.32 7.13C20.4079 6.94487 20.4369 6.7372 20.4029 6.53509C20.3689 6.33297 20.2737 6.14618 20.13 6L18 3.87C17.8522 3.72208 17.6618 3.6242 17.4555 3.59012C17.2493 3.55604 17.0375 3.58748 16.85 3.68L15.07 4.57L14.44 2.68C14.3735 2.48299 14.2472 2.31162 14.0787 2.18975C13.9102 2.06787 13.7079 2.00154 13.5 2H10.5C10.2904 1.99946 10.0858 2.06482 9.91537 2.18684C9.7449 2.30886 9.61709 2.48138 9.55 2.68ZM12.78 4L13.18 5.2C13.2695 5.47594 13.418 5.72911 13.6151 5.94194C13.8122 6.15477 14.0533 6.32218 14.3216 6.43254C14.5899 6.5429 14.8789 6.59357 15.1688 6.58104C15.4586 6.56852 15.7422 6.49309 16 6.36L17.14 5.79L18.24 6.89L17.64 8C17.5122 8.25644 17.4411 8.53735 17.4313 8.82369C17.4215 9.11003 17.4734 9.39513 17.5834 9.65968C17.6934 9.92423 17.8589 10.1621 18.0688 10.3571C18.2787 10.5521 18.5281 10.6997 18.8 10.79L20 11.19V12.78L18.8 13.18C18.5241 13.2695 18.2709 13.418 18.0581 13.6151C17.8452 13.8122 17.6778 14.0533 17.5675 14.3216C17.4571 14.5899 17.4064 14.8789 17.419 15.1688C17.4315 15.4586 17.5069 15.7422 17.64 16L18.21 17.14L17.11 18.24L16 17.64C15.7422 17.5069 15.4586 17.4315 15.1688 17.419C14.8789 17.4064 14.5899 17.4571 14.3216 17.5675C14.0533 17.6778 13.8122 17.8452 13.6151 18.0581C13.418 18.2709 13.2695 18.5241 13.18 18.8L12.78 20H11.22L10.82 18.8C10.7305 18.5241 10.582 18.2709 10.3849 18.0581C10.1878 17.8452 9.94671 17.6778 9.67842 17.5675C9.41014 17.4571 9.12105 17.4064 8.83123 17.419C8.5414 17.4315 8.25777 17.5069 8 17.64L6.89 18.21L5.79 17.11L6.36 16C6.4931 15.7422 6.56852 15.4586 6.58105 15.1688C6.59357 14.8789 6.5429 14.5899 6.43254 14.3216C6.32218 14.0533 6.15478 13.8122 5.94195 13.6151C5.72912 13.418 5.47595 13.2695 5.2 13.18L4 12.78L4 11.22L5.2 10.82C5.47595 10.7305 5.72912 10.582 5.94195 10.3849C6.15478 10.1878 6.32218 9.9467 6.43254 9.67842C6.5429 9.41013 6.59357 9.12105 6.58105 8.83122C6.56852 8.5414 6.4931 8.25776 6.36 8L5.79 6.86L6.89 5.76L8 6.36C8.25645 6.48776 8.53735 6.55894 8.82369 6.5687C9.11003 6.57847 9.39513 6.5266 9.65968 6.4166C9.92424 6.30661 10.1621 6.14106 10.3571 5.93116C10.5521 5.72126 10.6997 5.47192 10.79 5.2L11.19 4H12.78ZM8 12C8 12.7911 8.2346 13.5645 8.67412 14.2223C9.11365 14.8801 9.73836 15.3928 10.4693 15.6955C11.2002 15.9983 12.0044 16.0775 12.7804 15.9231C13.5563 15.7688 14.269 15.3878 14.8284 14.8284C15.3878 14.269 15.7688 13.5563 15.9231 12.7804C16.0775 12.0044 15.9983 11.2002 15.6955 10.4693C15.3928 9.73836 14.8801 9.11365 14.2223 8.67412C13.5645 8.2346 12.7911 8 12 8C10.9391 8 9.92172 8.42143 9.17158 9.17157C8.42143 9.92172 8 10.9391 8 12ZM14 12C14 12.3956 13.8827 12.7822 13.6629 13.1111C13.4432 13.44 13.1308 13.6964 12.7654 13.8478C12.3999 13.9991 11.9978 14.0387 11.6098 13.9616C11.2219 13.8844 10.8655 13.6939 10.5858 13.4142C10.3061 13.1345 10.1156 12.7781 10.0384 12.3902C9.96126 12.0022 10.0009 11.6001 10.1522 11.2346C10.3036 10.8692 10.56 10.5568 10.8889 10.3371C11.2178 10.1173 11.6044 10 12 10C12.5304 10 13.0391 10.2107 13.4142 10.5858C13.7893 10.9609 14 11.4696 14 12Z" fill="currentColor"/>
</svg>
