<svg width="24" height="24" viewBox="0 0 24 24" fill="none" xmlns="http://www.w3.org/2000/svg">
<path d="M21.1578 2.18789C20.442 2.0658 19.7171 2.00295 18.9907 2C16.5124 1.99799 14.0857 2.70167 12 4.02716C9.90892 2.71907 7.48264 2.03267 5.00928 2.04945C4.28289 2.05239 3.55801 2.11524 2.84215 2.23733C2.60767 2.27736 2.39532 2.39897 2.24336 2.58026C2.09139 2.76155 2.00979 2.99061 2.01325 3.22619V15.0925C2.01111 15.2378 2.04134 15.3817 2.10178 15.5141C2.16223 15.6466 2.2514 15.7642 2.36296 15.8586C2.47452 15.953 2.60572 16.0219 2.74723 16.0604C2.88874 16.0989 3.03708 16.106 3.1817 16.0813C4.61282 15.836 6.07906 15.8767 7.49404 16.201C8.90903 16.5254 10.2442 17.1269 11.4208 17.97L11.5406 18.0393H11.6505C11.7612 18.0849 11.88 18.1085 12 18.1085C12.12 18.1085 12.2388 18.0849 12.3495 18.0393H12.4594L12.5792 17.97C13.7476 17.108 15.0789 16.4871 16.4942 16.144C17.9094 15.8008 19.3799 15.7426 20.8183 15.9725C20.9629 15.9973 21.1113 15.9901 21.2528 15.9516C21.3943 15.9131 21.5255 15.8442 21.637 15.7498C21.7486 15.6554 21.8378 15.5378 21.8982 15.4054C21.9587 15.273 21.9889 15.129 21.9867 14.9837V3.11741C21.9764 2.8921 21.8885 2.67708 21.7377 2.50802C21.587 2.33895 21.3824 2.22599 21.1578 2.18789ZM11.0013 15.3298C9.15366 14.3673 7.09702 13.865 5.00928 13.8663C4.67971 13.8663 4.35015 13.8663 4.0106 13.8663V3.97772C4.34322 3.95874 4.67666 3.95874 5.00928 3.97772C7.13983 3.97539 9.2239 4.59446 11.0013 5.75766V15.3298ZM19.9894 13.9058C19.6498 13.9058 19.3203 13.9058 18.9907 13.9058C16.903 13.9046 14.8463 14.4069 12.9987 15.3693V5.75766C14.7761 4.59446 16.8602 3.97539 18.9907 3.97772C19.3233 3.95874 19.6568 3.95874 19.9894 3.97772V13.9058ZM21.1578 18.0096C20.442 17.8875 19.7171 17.8247 18.9907 17.8217C16.5124 17.8197 14.0857 18.5234 12 19.8489C9.91428 18.5234 7.48762 17.8197 5.00928 17.8217C4.28289 17.8247 3.55801 17.8875 2.84215 18.0096C2.71215 18.03 2.58751 18.0757 2.4754 18.144C2.36329 18.2123 2.26592 18.3018 2.18888 18.4075C2.11185 18.5132 2.05668 18.6329 2.02654 18.7598C1.9964 18.8867 1.99188 19.0182 2.01325 19.1468C2.064 19.4036 2.21547 19.63 2.43448 19.7764C2.65349 19.9228 2.92218 19.9773 3.1817 19.928C4.61282 19.6826 6.07906 19.7233 7.49404 20.0477C8.90903 20.3721 10.2442 20.9735 11.4208 21.8167C11.5899 21.9359 11.7924 22 12 22C12.2076 22 12.4101 21.9359 12.5792 21.8167C13.7558 20.9735 15.091 20.3721 16.506 20.0477C17.9209 19.7233 19.3872 19.6826 20.8183 19.928C21.0778 19.9773 21.3465 19.9228 21.5655 19.7764C21.7845 19.63 21.936 19.4036 21.9867 19.1468C22.0081 19.0182 22.0036 18.8867 21.9735 18.7598C21.9433 18.6329 21.8881 18.5132 21.8111 18.4075C21.7341 18.3018 21.6367 18.2123 21.5246 18.144C21.4125 18.0757 21.2878 18.03 21.1578 18.0096Z" fill="#1C1C1C"/>
</svg>
