<svg width="67" height="98" viewBox="0 0 67 98" fill="none" xmlns="http://www.w3.org/2000/svg">
<path d="M30.3669 80.0389C14.2676 78.4178 2.12086 65.0677 2.12086 49.0477C2.12086 33.0276 14.5568 19.5822 30.5597 18.0565L27.1856 21.394C26.8 21.7754 26.8 22.3476 27.1856 22.729C27.3784 22.9197 27.6676 23.0151 27.8604 23.0151C28.0532 23.0151 28.3424 22.9197 28.5352 22.729L33.6446 17.675C33.8374 17.4843 33.9338 17.2936 33.9338 17.0075C33.9338 16.7215 33.741 16.5307 33.5482 16.34L28.4388 11.2861C28.0532 10.9046 27.4748 10.9046 27.0892 11.2861C26.7036 11.6675 26.7036 12.2396 27.0892 12.6211L30.5597 16.054C13.4 17.4843 0 31.8833 0 48.9523C0 66.0213 12.918 80.1342 29.9813 81.8507H30.0777C30.5597 81.8507 30.9453 81.4693 31.0417 80.9925C31.2345 80.5157 30.8489 80.0389 30.3669 80.0389Z" fill="black"/>
<path d="M36.9223 16.054C36.4403 16.054 35.9583 16.34 35.8619 16.9122C35.7655 17.389 36.1511 17.8657 36.7295 17.9611C52.8288 19.5822 64.9755 32.9322 64.9755 48.9523C64.9755 64.9724 52.5396 78.4178 36.5367 79.9435L39.9108 76.606C40.2964 76.2246 40.2964 75.6524 39.9108 75.271C39.5252 74.8896 38.9468 74.8896 38.5611 75.271L33.5482 80.325C33.3554 80.5157 33.259 80.7064 33.259 80.9925C33.259 81.2785 33.3554 81.4693 33.5482 81.66L38.6576 86.7139C38.8504 86.9046 39.1396 87 39.3324 87C39.5252 87 39.8144 86.9046 40.0072 86.7139C40.3928 86.3325 40.3928 85.7604 40.0072 85.3789L36.4403 81.8507C53.6 80.4203 67 66.0213 67 48.9523C67 31.8833 54.082 17.7704 36.9223 16.054Z" fill="black"/>
<path d="M32.777 45.3287C32.3914 45.2334 32.1022 45.3287 31.813 45.6148C31.5237 45.9009 31.5237 46.2823 31.6201 46.5684L33.4518 51.6223L27.3784 50.478C26.8964 50.3827 26.318 50.6688 26.2216 51.2409C26.1252 51.813 26.4144 52.2898 26.9928 52.3852L34.705 53.9109C34.8014 53.9109 34.8014 53.9109 34.8978 53.9109C35.187 53.9109 35.4763 53.8156 35.6691 53.6248C35.8619 53.3388 35.9583 52.9573 35.8619 52.6713L34.0302 47.7127L39.4288 49.143C39.9108 49.2384 40.4892 48.9523 40.5856 48.4755C40.682 47.9987 40.3928 47.4266 39.9108 47.3312L32.777 45.3287Z" fill="black"/>
<path d="M55.046 36.079C55.046 35.793 54.9496 35.6023 54.7568 35.4115L48.0086 28.7365C47.623 28.3551 47.0446 28.3551 46.659 28.7365L44.1525 31.2158L42.8993 29.9762C42.5137 29.5947 41.9352 29.5947 41.5496 29.9762L12.7252 58.3927C12.5324 58.5834 12.436 58.7741 12.436 59.0602C12.436 59.3463 12.5324 59.537 12.7252 59.7277L23.4259 70.3124C23.6187 70.5031 23.9079 70.5985 24.1007 70.5985C24.2935 70.5985 24.5827 70.5031 24.7755 70.3124L46.4662 48.7616L53.5036 41.8005C53.6964 41.6098 53.7928 41.4191 53.7928 41.133C53.7928 40.8469 53.6964 40.6562 53.5036 40.4655L52.2504 39.2258L54.7568 36.7465C54.9496 36.5558 55.046 36.2698 55.046 36.079ZM29.5957 62.7792L20.341 53.6248L35.187 38.9398L44.4417 48.0941L29.5957 62.7792ZM24.1007 68.2146L14.846 59.0602L18.9914 54.9598L28.246 64.1142L24.1007 68.2146ZM45.7914 46.7591L36.5367 37.6048L42.2245 31.9787L51.4791 41.133L45.7914 46.7591ZM50.9007 37.7955L45.5986 32.5508L47.4302 30.739L52.7324 35.9837L50.9007 37.7955Z" fill="black"/>
<path d="M20.7266 59.6324C20.341 59.2509 19.7626 59.2509 19.377 59.6324C18.9914 60.0138 18.9914 60.5859 19.377 60.9674L22.1727 63.7327C22.3655 63.9235 22.6547 64.0188 22.8475 64.0188C23.0403 64.0188 23.3295 63.9235 23.5223 63.7327C23.9079 63.3513 23.9079 62.7792 23.5223 62.3977L20.7266 59.6324Z" fill="black"/>
<path d="M41.9353 38.6537L42.7065 39.4166L41.9353 40.1794C41.5496 40.5609 41.5496 41.133 41.9353 41.5144C42.1281 41.7051 42.4173 41.8005 42.6101 41.8005C42.8029 41.8005 43.0921 41.7051 43.2849 41.5144L44.0561 40.7516L44.8273 41.5144C45.0201 41.7051 45.3094 41.8005 45.5022 41.8005C45.695 41.8005 45.9842 41.7051 46.177 41.5144C46.5626 41.133 46.5626 40.5609 46.177 40.1794L45.4058 39.4166L46.177 38.6537C46.5626 38.2723 46.5626 37.7001 46.177 37.3187C45.7914 36.9373 45.2129 36.9373 44.8273 37.3187L44.0561 38.0816L43.2849 37.3187C42.8993 36.9373 42.3209 36.9373 41.9353 37.3187C41.5496 37.7001 41.5496 38.2723 41.9353 38.6537Z" fill="black"/>
</svg>
