<svg width="67" height="98" viewBox="0 0 67 98" fill="none" xmlns="http://www.w3.org/2000/svg">
<path d="M21.2467 41.0505C21.7082 40.5891 21.7082 39.8409 21.2467 39.3795C20.7852 38.9181 20.037 38.9181 19.5756 39.3795C19.1141 39.8409 19.1141 40.5891 19.5756 41.0505C20.037 41.5119 20.7852 41.5119 21.2467 41.0505Z" fill="#1C1C1C"/>
<path d="M22.672 33.0414C23.1335 33.5029 23.1335 34.251 22.672 34.7124C22.2105 35.1739 21.4623 35.1739 21.0008 34.7124C20.5394 34.251 20.5394 33.5029 21.0009 33.0414C21.4623 32.58 22.2105 32.58 22.672 33.0414Z" fill="#1C1C1C"/>
<path d="M19.1024 30.3325C19.5639 29.871 19.5639 29.1229 19.1024 28.6615C18.641 28.2001 17.8928 28.2001 17.4313 28.6615C16.9698 29.1229 16.9698 29.8711 17.4313 30.3325C17.8927 30.7939 18.641 30.7939 19.1024 30.3325Z" fill="#1C1C1C"/>
<path d="M17.2761 35.4218C17.7376 35.8832 17.7376 36.6313 17.2761 37.0928C16.8146 37.5542 16.0664 37.5542 15.605 37.0928C15.1435 36.6313 15.1435 35.8832 15.605 35.4218C16.0664 34.9603 16.8146 34.9603 17.2761 35.4218Z" fill="#1C1C1C"/>
<path d="M13.4077 33.1759C13.8692 32.7145 13.8692 31.9663 13.4077 31.5049C12.9463 31.0435 12.1981 31.0435 11.7366 31.5049C11.2751 31.9663 11.2751 32.7145 11.7366 33.1759C12.1981 33.6373 12.9463 33.6373 13.4077 33.1759Z" fill="#1C1C1C"/>
<path d="M13.0341 25.7452C13.4956 26.2067 13.4956 26.9548 13.0341 27.4162C12.5726 27.8776 11.8244 27.8776 11.363 27.4162C10.9015 26.9548 10.9015 26.2067 11.363 25.7452C11.8244 25.2838 12.5726 25.2838 13.0341 25.7452Z" fill="#1C1C1C"/>
<path d="M16.0998 42.2385C16.5612 41.777 16.5612 41.0289 16.0998 40.5675C15.6383 40.106 14.8901 40.106 14.4286 40.5675C13.9671 41.0289 13.9671 41.777 14.4286 42.2385C14.8901 42.6999 15.6383 42.6999 16.0998 42.2385Z" fill="#1C1C1C"/>
<path d="M11.2951 37.2553C11.7566 37.7167 11.7566 38.4648 11.2951 38.9263C10.8336 39.3877 10.0854 39.3877 9.62393 38.9263C9.16245 38.4648 9.16245 37.7167 9.62393 37.2553C10.0854 36.7938 10.8336 36.7938 11.2951 37.2553Z" fill="#1C1C1C"/>
<path d="M8.48664 33.5174C8.94811 33.056 8.94811 32.3078 8.48664 31.8464C8.02516 31.385 7.27695 31.385 6.81548 31.8464C6.354 32.3078 6.354 33.056 6.81548 33.5174C7.27696 33.9788 8.02516 33.9788 8.48664 33.5174Z" fill="#1C1C1C"/>
<path d="M7.28153 25.1038C7.74301 25.5652 7.74301 26.3134 7.28153 26.7748C6.82005 27.2362 6.07185 27.2362 5.61037 26.7748C5.14889 26.3134 5.14889 25.5652 5.61037 25.1038C6.07185 24.6424 6.82005 24.6424 7.28153 25.1038Z" fill="#1C1C1C"/>
<path d="M7.40641 77.3138C7.86789 76.8524 7.86789 76.1042 7.40641 75.6428C6.94493 75.1814 6.19673 75.1814 5.73525 75.6428C5.27377 76.1042 5.27377 76.8524 5.73525 77.3138C6.19673 77.7752 6.94493 77.7752 7.40641 77.3138Z" fill="#1C1C1C"/>
<path d="M58.2162 75.5781C58.6777 76.0396 58.6777 76.7877 58.2162 77.2491C57.7547 77.7106 57.0065 77.7106 56.5451 77.2491C56.0836 76.7877 56.0836 76.0396 56.5451 75.5781C57.0065 75.1167 57.7547 75.1167 58.2162 75.5781Z" fill="#1C1C1C"/>
<path d="M41.2559 34.7366L51.4691 24.4399C51.8067 24.1023 52.3976 24.1023 52.7352 24.4399C53.0728 24.7775 53.0728 25.2839 52.7352 25.6215L42.4376 35.9182C42.2687 36.087 42.0155 36.1714 41.8467 36.1714C41.6779 36.1714 41.4247 36.087 41.2559 35.9182C40.9182 35.5806 40.9182 35.0742 41.2559 34.7366Z" fill="#1C1C1C"/>
<path d="M44.1257 38.7877C44.2945 38.9565 44.5478 39.0409 44.7166 39.0409C44.8854 39.0409 45.1386 38.9565 45.3074 38.7877L55.6051 28.4911C55.9427 28.1535 55.9427 27.6471 55.6051 27.3095C55.2675 26.9719 54.761 26.9719 54.4234 27.3095L44.1257 37.6061C43.7881 37.9437 43.7881 38.4501 44.1257 38.7877Z" fill="#1C1C1C"/>
<path d="M47.5864 41.9105C47.4176 41.9105 47.1644 41.8261 46.9956 41.6573C46.658 41.3197 46.658 40.8133 46.9956 40.4757L57.2933 30.179C57.6309 29.8414 58.1373 29.8414 58.475 30.179C58.8126 30.5166 58.8126 31.023 58.475 31.3606L48.1773 41.6573C48.0085 41.8261 47.7553 41.9105 47.5864 41.9105Z" fill="#1C1C1C"/>
<path fill-rule="evenodd" clip-rule="evenodd" d="M51.7223 16.2532C52.06 15.9156 52.5664 15.9156 52.904 16.2532L66.7468 30.0102C67.0844 30.3478 67.0844 30.8542 66.7468 31.1918L52.3976 45.5396C50.7094 47.2276 48.5149 48.0716 46.3203 48.0716C44.2945 48.0716 42.1843 47.312 40.5806 45.8772L36.107 50.7724L40.4118 54.7391L41.0026 54.1483C41.3403 53.8107 41.8467 53.8107 42.1843 54.1483L61.5979 73.3913C62.5264 74.3197 63.0329 75.5857 63.0329 76.9361C63.0329 78.2864 62.5264 79.5524 61.5979 80.4808C60.6695 81.4092 59.4034 81.9156 58.0529 81.9156C56.7023 81.9156 55.4362 81.4092 54.5078 80.4808L35.2629 61.2379C35.0941 61.0691 35.0097 60.9003 35.0097 60.6471C35.0097 60.3939 35.0941 60.2251 35.2629 60.0563L35.8538 59.4655L32.0555 55.3299L28.1728 59.5499L28.7636 60.1407C29.1012 60.4783 29.1012 60.9847 28.7636 61.3223L9.5188 80.5652C8.50591 81.4936 7.2398 82 5.9737 82C4.70759 82 3.44149 81.578 2.4286 80.5652C0.48724 78.624 0.48724 75.4169 2.4286 73.4757L21.589 54.3171C21.9266 53.9795 22.4331 53.9795 22.7707 54.3171L23.3616 54.9079L27.7507 50.8568L23.1083 45.7928C20.9982 47.2276 18.5504 47.9028 16.1025 47.9028C12.8951 47.9028 9.6032 46.6368 7.1554 44.1893C2.51301 39.5473 -3.05786 26.2123 2.00657 21.1483C7.07099 16 20.3229 21.5703 25.0497 26.2967C29.4389 30.601 29.9453 37.3529 26.6534 42.2481L31.9711 47.0588L37.0355 42.4169C33.9968 39.0409 34.1657 33.8082 37.3731 30.601L51.7223 16.2532ZM8.4215 42.9233C12.5574 47.0588 19.2256 47.2276 23.5304 43.3453L24.3744 42.5857C28.1728 38.2813 28.0883 31.6138 23.9524 27.4783C20.8293 24.3555 13.3171 20.7263 7.91506 20.7263C6.05811 20.7263 4.36996 21.1483 3.27267 22.2455C-0.94768 26.3811 4.20115 38.7033 8.4215 42.9233ZM3.6103 79.3836C4.96081 80.6496 7.07099 80.6496 8.3371 79.3836L26.9911 60.7315L22.2643 56.0051L3.6103 74.6573C2.34419 76.0077 2.34419 78.1176 3.6103 79.3836ZM24.7121 56.0051L26.9911 58.2839L30.7894 53.9795L29.0168 52.0384L24.7121 56.0051ZM60.2474 74.6573L41.5935 56.0051L36.9511 60.6471L55.5206 79.3836C56.7867 80.6496 58.9813 80.6496 60.2474 79.3836C60.9227 78.7084 61.2603 77.9488 61.2603 77.0205C61.2603 76.0921 60.8383 75.2481 60.2474 74.6573ZM36.9511 58.2839L39.2301 56.0051L34.4189 51.6164L31.549 48.9156L25.8094 43.6829L24.6277 44.8644L29.7765 50.4348L32.6463 53.5575L36.9511 58.2839ZM33.2372 48.2404L34.8409 49.6752L39.2301 44.7801L38.1328 43.6829L33.2372 48.2404ZM41.4247 44.4425C44.1257 47.1432 48.5149 47.1432 51.2159 44.4425L64.9742 30.6854L52.3132 18.0256L38.6392 31.867C35.9382 34.5678 35.9382 38.9565 38.6392 41.6573L41.4247 44.4425Z" fill="#1C1C1C"/>
</svg>
