<svg width="67" height="98" viewBox="0 0 67 98" fill="none" xmlns="http://www.w3.org/2000/svg">
<path d="M66.9998 81.1625C66.9998 80.7002 66.6249 80.325 66.163 80.325H65.3621V60.3269H66.163C66.4149 60.3269 66.6525 60.2138 66.8115 60.0187C66.9705 59.8236 67.0333 59.5673 66.9831 59.3211L65.3563 51.4066V34.5709C65.3563 34.5106 65.3496 34.4495 65.337 34.3909L63.9495 28.0978C63.865 27.7142 63.5252 27.4404 63.1319 27.4404H55.951L55.3761 20.9982C55.3376 20.5661 54.9752 20.2353 54.5426 20.2353H39.348C38.9145 20.2353 38.553 20.5669 38.5145 20.9982L37.9396 27.4404H30.7587C30.3662 27.4404 30.0264 27.7134 29.9411 28.0978L28.5536 34.3909C28.5402 34.4503 28.5343 34.5106 28.5343 34.5709V51.3446L26.895 59.3211C26.8439 59.5673 26.9075 59.8244 27.0665 60.0187C27.2255 60.213 27.4632 60.3269 27.7151 60.3269H28.5343V80.325H17.3566L17.3692 74.99C20.4797 74.6123 22.8915 72.1182 22.8915 69.1007C22.8915 67.8829 22.4907 66.6953 21.7534 65.7037C21.9609 65.1526 22.0655 64.5798 22.0655 63.9935C22.0655 62.9332 21.7166 61.9014 21.0756 61.0371C21.2312 60.5899 21.3099 60.1267 21.3099 59.6535C21.3099 57.1846 19.1751 55.1762 16.5507 55.1762C15.9047 55.1762 15.267 55.306 14.6779 55.543C14.5557 55.3446 14.4386 55.1427 14.2938 54.9559C14.5197 54.358 14.6344 53.7349 14.6344 53.0992C14.6344 50.0088 11.954 47.4937 8.66015 47.4937C5.47345 47.4937 2.85246 49.8312 2.69346 52.8161C2.68844 52.9091 2.68593 53.0037 2.68593 53.0984C2.68593 53.7349 2.80058 54.3571 3.02653 54.9551C2.16542 56.0657 1.69678 57.4057 1.69678 58.7842C1.69678 59.5673 1.84574 60.3319 2.14031 61.0648C2.08843 61.1326 2.03738 61.2004 1.98801 61.2691C1.08924 62.5136 0.614746 63.9684 0.614746 65.4742C0.614746 69.3528 3.7663 72.5529 7.79904 72.9566L7.7823 80.325H0.889231C0.427294 80.325 0.0523881 80.7002 0.0523881 81.1625C0.0523881 81.6248 0.427294 82 0.889231 82H66.163C66.6249 82 66.9998 81.6256 66.9998 81.1625ZM63.6884 80.325H55.1434V60.3269H63.6884V80.325ZM38.5513 72.6609V80.325H35.3245V72.6609H38.5513ZM40.225 72.6609H43.4519V80.325H40.225V72.6609ZM45.1256 72.6609H48.3524V80.325H45.1256V72.6609ZM50.027 72.6609H53.4697V80.325H50.027V72.6609ZM28.741 58.6519L30.044 52.3153H32.3487V58.6519H28.741ZM63.6817 36.1153V50.6403H30.208V36.1153H63.6817ZM56.0372 58.6519V52.3153H63.8332L65.1362 58.6519H56.0372ZM34.0223 52.3153H37.8526V58.6519H34.0223V52.3153ZM39.5263 52.3153H43.3565V58.6519H39.5263V52.3153ZM45.0302 52.3153H48.8604V58.6519H45.0302V52.3153ZM50.5333 52.3153H54.3635V58.6519H50.5333V52.3153ZM54.479 29.7787H50.4086V26.6699H54.2011L54.479 29.7787ZM39.6886 26.6707H43.4812V29.7795H39.4108L39.6886 26.6707ZM45.1549 26.6707H48.7349V29.7795H45.1549V26.6707ZM45.1549 24.9957V21.9103H48.7349V24.9957H45.1549ZM54.0513 24.9957H50.4077V21.9103H53.7752L54.0513 24.9957ZM43.4812 21.9103V24.9957H39.8376L40.1129 21.9103H43.4812ZM31.4306 29.1154H37.7898L37.6626 30.5425C37.6417 30.7762 37.7204 31.009 37.8785 31.1824C38.0367 31.3557 38.261 31.4546 38.4961 31.4546H55.3936C55.6288 31.4546 55.8522 31.3557 56.0112 31.1824C56.1702 31.009 56.2481 30.777 56.2271 30.5425L56.0999 29.1154H62.4591L63.6332 34.4403H30.2566L31.4306 29.1154ZM53.4697 60.3269V70.9859H30.208V60.3269H53.4697ZM30.208 72.6609H33.6508V80.325H30.208V72.6609ZM16.5516 56.8521C18.2529 56.8521 19.637 58.1092 19.637 59.6544C19.637 60.0505 19.5441 60.4383 19.36 60.806C19.2044 61.1175 19.2579 61.491 19.4931 61.7473C20.073 62.378 20.3927 63.1761 20.3927 63.9944C20.3927 64.4985 20.2722 64.991 20.0362 65.4583C19.8797 65.7665 19.9291 66.1392 20.16 66.3972C20.8429 67.1576 21.2187 68.1183 21.2187 69.1015C21.2187 71.4557 19.1257 73.3711 16.5524 73.3711C15.1549 73.3711 13.8486 72.7991 12.9657 71.8259C15.2101 70.4893 16.7072 68.1459 16.7072 65.4776C16.7072 63.8922 16.1691 62.3461 15.1817 61.0681C15.4762 60.3361 15.6252 59.5706 15.6252 58.7876C15.6252 58.2097 15.5248 57.6435 15.3658 57.0933C15.7415 56.9492 16.1399 56.8521 16.5516 56.8521ZM2.28843 65.4768C2.28843 64.3252 2.65413 63.2096 3.34536 62.2507C3.46754 62.0798 3.6006 61.9165 3.74119 61.759C3.97216 61.5019 4.0207 61.1292 3.86504 60.821C3.53616 60.1728 3.37047 59.4886 3.37047 58.7867C3.37047 57.6494 3.81316 56.5414 4.61737 55.667C4.85252 55.4107 4.90524 55.0364 4.75042 54.7256C4.491 54.2064 4.36045 53.6603 4.36045 53.1009C4.36045 53.0347 4.36213 52.9694 4.36548 52.9057C4.47678 50.8111 6.36386 49.1704 8.66099 49.1704C11.0326 49.1704 12.9615 50.9334 12.9615 53.1009C12.9615 53.6603 12.8301 54.2072 12.5716 54.7265C12.4167 55.0372 12.4695 55.4116 12.7046 55.6678C13.5088 56.5414 13.9515 57.6494 13.9515 58.7876C13.9515 59.4894 13.785 60.1745 13.4569 60.8219C13.3004 61.1301 13.3498 61.5028 13.58 61.7607C14.5172 62.8051 15.0327 64.1259 15.0327 65.4776C15.0327 68.7045 12.1741 71.3301 8.66099 71.3301C5.14792 71.3301 2.28843 68.7037 2.28843 65.4768ZM9.47273 72.9649C10.1414 72.9021 10.7824 72.7539 11.3933 72.547C12.4159 73.8912 13.9733 74.7673 15.6955 74.9867L15.6829 80.325H9.45599L9.47273 72.9649Z" fill="black"/>
<path d="M37.7672 47.4962H43.3347C43.7967 47.4962 44.1716 47.121 44.1716 46.6587V42.8816C44.1716 40.8833 42.5473 39.2577 40.5514 39.2577C38.5547 39.2577 36.9304 40.8833 36.9304 42.8816V46.6587C36.9304 47.121 37.3053 47.4962 37.7672 47.4962ZM38.6041 42.8816C38.6041 41.807 39.4777 40.9327 40.5514 40.9327C41.6251 40.9327 42.4979 41.807 42.4979 42.8816V45.8212H38.6041V42.8816Z" fill="black"/>
<path d="M50.555 47.4962H56.1225C56.5845 47.4962 56.9594 47.121 56.9594 46.6587V42.8816C56.9594 40.8833 55.3351 39.2577 53.3384 39.2577C51.3425 39.2577 49.7182 40.8833 49.7182 42.8816V46.6587C49.7182 47.121 50.0922 47.4962 50.555 47.4962ZM51.3919 42.8816C51.3919 41.807 52.2647 40.9327 53.3384 40.9327C54.412 40.9327 55.2857 41.807 55.2857 42.8816V45.8212H51.3919V42.8816Z" fill="black"/>
<path d="M12.354 33.0752C15.4654 33.0752 17.9968 30.5417 17.9968 27.4278C17.9968 24.314 15.4654 21.7805 12.354 21.7805C9.2426 21.7805 6.71115 24.314 6.71115 27.4278C6.71115 30.5417 9.2426 33.0752 12.354 33.0752ZM12.354 23.4547C14.5423 23.4547 16.3231 25.2369 16.3231 27.427C16.3231 29.6171 14.5423 31.3993 12.354 31.3993C10.1656 31.3993 8.38483 29.6171 8.38483 27.427C8.38483 25.2369 10.1656 23.4547 12.354 23.4547Z" fill="black"/>
<path d="M13.1908 18.2705V15.8375C13.1908 15.3752 12.8159 15 12.354 15C11.892 15 11.5171 15.3752 11.5171 15.8375V18.2705C11.5171 18.7328 11.892 19.108 12.354 19.108C12.8159 19.108 13.1908 18.7328 13.1908 18.2705Z" fill="black"/>
<path d="M16.0746 19.9003C16.3951 19.9003 16.7005 19.7152 16.8395 19.4028L17.8286 17.18C18.0169 16.7579 17.8269 16.2621 17.4043 16.0745C16.9826 15.8878 16.488 16.0762 16.2997 16.4991L15.3105 18.7219C15.1223 19.144 15.3122 19.6398 15.7348 19.8274C15.8461 19.876 15.9608 19.9003 16.0746 19.9003Z" fill="black"/>
<path d="M20.4002 19.0494L18.5935 20.6775C18.2495 20.9874 18.2219 21.5167 18.5315 21.86C18.6964 22.0443 18.9249 22.1373 19.1542 22.1373C19.3533 22.1373 19.5542 22.0661 19.7132 21.922L21.5199 20.2939C21.8639 19.984 21.8915 19.4547 21.5818 19.1113C21.273 18.768 20.7442 18.7403 20.4002 19.0494Z" fill="black"/>
<path d="M23.1091 23.0493L20.7977 23.8006C20.3584 23.9438 20.1182 24.4161 20.2605 24.8558C20.3751 25.2093 20.7032 25.4345 21.0563 25.4345C21.1417 25.4345 21.2295 25.4211 21.3149 25.3935L23.6262 24.6423C24.0656 24.499 24.3058 24.0267 24.1635 23.587C24.0212 23.1473 23.5501 22.9069 23.1091 23.0493Z" fill="black"/>
<path d="M23.8714 29.4764C24.2941 29.4764 24.6572 29.1564 24.7033 28.726C24.7518 28.2662 24.4179 27.8541 23.9585 27.8055L21.5408 27.5509C21.0739 27.5057 20.6688 27.8365 20.6211 28.2963C20.5726 28.7561 20.9065 29.1682 21.3659 29.2167L23.7836 29.4713C23.8137 29.4747 23.843 29.4764 23.8714 29.4764Z" fill="black"/>
<path d="M20.6965 31.2804C20.2948 31.0492 19.7843 31.1866 19.5533 31.5869C19.3224 31.9881 19.4596 32.4998 19.8596 32.7309L21.9643 33.947C22.0965 34.0232 22.2404 34.0592 22.3819 34.0592C22.6714 34.0592 22.9526 33.9093 23.1074 33.6405C23.3384 33.2393 23.2011 32.7276 22.8011 32.4964L20.6965 31.2804Z" fill="black"/>
<path d="M17.2403 34.1572C16.8662 34.4294 16.7834 34.9528 17.0554 35.3272L18.4847 37.2954C18.6487 37.5207 18.9031 37.6404 19.1625 37.6404C19.3332 37.6404 19.5048 37.5885 19.6538 37.4805C20.0278 37.2083 20.1107 36.6848 19.8387 36.3105L18.4094 34.3423C18.1366 33.9688 17.6144 33.885 17.2403 34.1572Z" fill="black"/>
<path d="M14.0821 35.5651C13.6302 35.6614 13.3415 36.1061 13.4377 36.5584L13.9431 38.9377C14.0268 39.3314 14.3741 39.601 14.7607 39.601C14.8185 39.601 14.8771 39.5952 14.9356 39.5826C15.3875 39.4863 15.6762 39.0416 15.58 38.5893L15.0746 36.21C14.9783 35.7569 14.534 35.4654 14.0821 35.5651Z" fill="black"/>
<path d="M9.6334 36.21L9.12795 38.5893C9.03171 39.0424 9.32042 39.4863 9.77232 39.5826C9.8309 39.5952 9.88947 39.601 9.94722 39.601C10.3338 39.601 10.6811 39.3314 10.7648 38.9377L11.2703 36.5584C11.3665 36.1053 11.0778 35.6614 10.6259 35.5651C10.1732 35.4679 9.7288 35.7577 9.6334 36.21Z" fill="black"/>
<path d="M4.87009 36.3113C4.59812 36.6857 4.68097 37.2091 5.05503 37.4813C5.20399 37.5893 5.37555 37.6413 5.54626 37.6413C5.80568 37.6413 6.06008 37.5215 6.2241 37.2962L7.65259 35.3281C7.92457 34.9537 7.84172 34.4302 7.46765 34.1581C7.09358 33.8867 6.57056 33.9696 6.29858 34.3431L4.87009 36.3113Z" fill="black"/>
<path d="M1.90683 32.4964C1.50682 32.7276 1.36958 33.2401 1.60055 33.6405C1.7562 33.9093 2.03654 34.0592 2.32609 34.0592C2.46752 34.0592 2.61145 34.0232 2.74367 33.947L4.84917 32.7309C5.24918 32.4998 5.38642 31.9872 5.15546 31.5869C4.92449 31.1857 4.41318 31.0484 4.01233 31.2804L1.90683 32.4964Z" fill="black"/>
<path d="M0.83651 29.4764C0.865799 29.4764 0.895089 29.4747 0.924378 29.4722L3.34202 29.2176C3.80144 29.169 4.13534 28.7569 4.08681 28.2972C4.03827 27.8374 3.62738 27.5057 3.16712 27.5518L0.749478 27.8064C0.290051 27.8549 -0.043849 28.267 0.00468787 28.7268C0.0498774 29.1564 0.413067 29.4764 0.83651 29.4764Z" fill="black"/>
<path d="M0.544452 23.587C0.402189 24.0267 0.642362 24.499 1.0817 24.6423L3.3939 25.3935C3.4801 25.4211 3.56713 25.4345 3.65249 25.4345C4.00563 25.4345 4.33368 25.2093 4.44832 24.8558C4.59059 24.4161 4.35041 23.9438 3.91107 23.8006L1.59887 23.0493C1.15786 22.9069 0.686715 23.1473 0.544452 23.587Z" fill="black"/>
<path d="M4.30857 19.0494C3.96463 18.7403 3.43658 18.768 3.12611 19.1113C2.81648 19.4556 2.84493 19.9849 3.18804 20.2947L4.99394 21.9229C5.15378 22.0669 5.35462 22.1381 5.55379 22.1381C5.78225 22.1381 6.01071 22.0451 6.1764 21.8609C6.48604 21.5167 6.45758 20.9874 6.11448 20.6775L4.30857 19.0494Z" fill="black"/>
<path d="M8.63254 19.9003C8.74635 19.9003 8.86183 19.8768 8.97229 19.8274C9.39406 19.639 9.58403 19.1448 9.39657 18.7219L8.40826 16.4991C8.22081 16.077 7.72624 15.8878 7.30363 16.0745C6.88186 16.263 6.6919 16.7571 6.87935 17.18L7.86766 19.4028C8.00658 19.7143 8.31286 19.9003 8.63254 19.9003Z" fill="black"/>
</svg>
