<svg width="67" height="98" viewBox="0 0 67 98" fill="none" xmlns="http://www.w3.org/2000/svg">
<path fill-rule="evenodd" clip-rule="evenodd" d="M4.79996 47.7H4.49996C3.39996 47.7 2.49996 46.9 2.29996 45.8C1.99996 44.6 2.79996 43.4 3.99996 43.1L27.5 37.4C28.3 37.2 29.2 37.3 29.9 37.7C29.95 37.7 29.975 37.725 30 37.75C30.025 37.775 30.05 37.8 30.1 37.8C30.3 36.9 30.7 36.1 31.4 35.5C31.8 35.1 32.3 34.8 32.8 34.6C32.8 34.6 32.7 34.5 32.7 34.4C32.3 33.6 32.3 32.8 32.5 32L39.9 9C40.3 7.8 41.5 7.2 42.7 7.5C43.9 7.8 44.7 9 44.4 10.2L39.1 33.9C39 34.7 38.5 35.4 37.8 35.9C37.8 35.9 37.7 36 37.6 36C38.1 36.7 38.4 37.4 38.5 38.2C38.5899 38.2 38.7 38.1798 38.8212 38.1576C38.9697 38.1303 39.1348 38.1 39.3 38.1C40.2 38.1 41 38.4 41.6 38.9L60.2 54.5C61.2 55.3 61.3 56.7 60.6 57.7C60.1 58.3 59.4 58.6 58.7 58.6C58.3 58.6 57.8 58.5 57.4 58.2L37.5 44.4C37.1 44.1 36.8 43.8 36.6 43.4L39.1 89H42.2C42.8 89 43.2 89.4 43.2 90C43.2 90.6 42.8 91 42.2 91H25.7C25.1 91 24.7 90.6 24.7 90C24.7 89.4 25.1 89 25.7 89H28.8L31.4 42.6C31.4 42.4814 31.3296 42.5738 31.2098 42.7313C31.1276 42.8393 31.022 42.9779 30.9 43.1C30.3 43.8 29.6 44.2 28.8 44.3L4.79996 47.7ZM33.3 43.5L30.8 88.9H37L34.5 43.5H33.3ZM40.3 40.4C40.1 40.2 39.8 40.1 39.4 40.1C39 40.2 38.6 40.4 38.4 40.7C38.1 41.1 38 41.5 38.1 41.9C38.1 42.2 38.3 42.5 38.6 42.7L58.5 56.5C58.6 56.6 58.8 56.5 58.9 56.4C59.1 56.2 59 56 58.9 55.9L40.3 40.4ZM41.9 9.7L34.5 32.7C34.4 33 34.4 33.4 34.5 33.7C34.7 34.1 35 34.4 35.4 34.5C35.8 34.6 36.3 34.5 36.6 34.3C36.9 34.1 37.1 33.8 37.2 33.5L42.5 9.9C42.6 9.7 42.5 9.5 42.3 9.5H42.2C42.1 9.5 41.9 9.6 41.9 9.7ZM32.8 37.2C32.4 37.6 32.1 38.1 32.1 38.7C32 39.3 32.2 39.8 32.7 40.3C33.1 40.7 33.6 41 34.2 41C34.8 41 35.4 40.8 35.8 40.4C36.2 40 36.5 39.5 36.5 38.9C36.5 38.3 36.3 37.7 35.9 37.3C35.5 36.9 35 36.6 34.4 36.6H34.3C33.7 36.6 33.2 36.8 32.8 37.2ZM28 39.5L4.39996 45C4.29996 45.1 4.19996 45.3 4.29996 45.5C4.39996 45.7 4.49996 45.8 4.69996 45.8L28.6 42.4C28.9 42.3 29.2 42.2 29.4 41.9C29.7 41.5 29.8 41.1 29.7 40.7C29.6 40.3 29.4 39.9 29 39.7C28.8 39.6 28.5 39.5 28.3 39.5H28Z" fill="#1C1C1C"/>
<path d="M8.20001 36.3C9.50001 23.3 20.4 13.1 33.5 12.7C34 12.7 34.5 13.1 34.6 13.7C34.6 14.2 34.2 14.7 33.6 14.7C21.5 15.1 11.4 24.4 10.2 36.5C10.1 37 9.70001 37.4 9.20001 37.4H9.10001C8.50001 37.3 8.10001 36.8 8.20001 36.3Z" fill="#1C1C1C"/>
<path d="M8.30005 22.6C8.60005 22.6 8.90005 22.4 9.10005 22.2C14.8 13.8 24.2001 9.1 34.2001 9.6C34.7001 9.6 35.2001 9.2 35.2001 8.6C35.2001 8 34.8 7.6 34.2001 7.6C23.6001 7 13.5 12.1 7.50005 21C7.20005 21.5 7.30005 22.1 7.80005 22.4C7.90005 22.5 8.10005 22.6 8.30005 22.6Z" fill="#1C1C1C"/>
<path d="M4.19995 37.7C4.19995 38.3 3.79995 38.7 3.19995 38.7C2.59995 38.7 2.19995 38.2 2.19995 37.6C2.39995 33.6 3.29995 29.1 4.69995 26C4.89995 25.5 5.49995 25.3 5.99995 25.5C6.49995 25.7 6.69995 26.3 6.49995 26.8C5.29995 29.8 4.39995 33.9 4.19995 37.7Z" fill="#1C1C1C"/>
<path d="M58.3001 31.1C57.8001 31.2 57.4001 31.8 57.6001 32.3C58.8001 37.3 58.3001 42.4 56.2001 47.1C56.0001 47.6 56.2001 48.2 56.7001 48.4C56.8001 48.5 57.0001 48.5 57.1001 48.5C57.5001 48.5 57.8001 48.3 58.0001 47.9C60.3001 42.8 60.8001 37.3 59.6001 31.9C59.4001 31.3 58.8001 31 58.3001 31.1Z" fill="#1C1C1C"/>
<path d="M56.1 28C54.2 23.8 51.1 20.2 47.2 17.8C46.8 17.5 46.5 16.8 46.8 16.4C47.1 16 47.7 15.8 48.2 16.1C52.5 18.8 55.8 22.6 57.9 27.2C58.1 27.7 57.9 28.3 57.4 28.5C57.3 28.6 57.1 28.6 57 28.6C56.6 28.6 56.3 28.4 56.1 28Z" fill="#1C1C1C"/>
<path d="M60.3 49.8C60 50.3 60.2 50.9 60.7 51.2C60.9 51.3 61 51.3 61.2 51.3C61.6 51.3 61.9 51.1 62.1 50.8C67.1 41.7 67 31 61.8 22C61.5 21.5 60.9 21.4 60.4 21.6C59.9 21.9 59.8 22.5 60 23C64.8 31.4 64.9 41.4 60.3 49.8Z" fill="#1C1C1C"/>
<path d="M57.1 18.9C55.1 16.6 51.8999 14 48.7 12.3C48.2 12 48.1 11.4 48.4 11C48.7 10.5 49.3 10.3 49.8 10.6C53.2 12.4 56.5999 15.1 58.7 17.6C59.0999 18 58.9999 18.6 58.6 19C58.3999 19.1 58.1 19.2 57.9 19.2C57.6 19.2 57.2999 19.1 57.1 18.9Z" fill="#1C1C1C"/>
<path d="M47.1999 59.5C47.3999 59.5 47.4999 59.5 47.6999 59.4C48.2999 59.0667 48.6333 58.8222 48.9666 58.5778C49.1332 58.4556 49.3 58.3333 49.4999 58.2L49.8999 57.9C50.2999 57.6 50.3999 56.9 50.0999 56.5C49.7999 56.1 49.0999 56 48.6999 56.3L48.2999 56.6C47.7941 57.0215 47.5726 57.1588 47.0361 57.4911C46.9362 57.5529 46.8255 57.6215 46.6999 57.7C46.1999 58 46.0999 58.6 46.2999 59.1C46.4999 59.3 46.7999 59.5 47.1999 59.5Z" fill="#1C1C1C"/>
<path d="M44.7 67.1C44.3 67.1 44 66.9 43.7999 66.5C43.5999 65.9 43.9 65.4 44.4 65C45.5 64.5 46.7 63.9 48 63.2C49 62.7 50 62 51 61.3C51.183 61.1627 51.3712 61.0255 51.5611 60.887C52.2013 60.4202 52.8601 59.9399 53.4 59.4C53.7999 59 54.4 59.1 54.8 59.5C55.2 59.9 55.0999 60.5 54.7 60.9C53.9 61.6 53 62.3 52.1 62.9999C51.1 63.7999 50.1 64.5 49 65.1C47.6 65.9 46.2999 66.5 45.0999 67C44.8999 67.1 44.8 67.1 44.7 67.1Z" fill="#1C1C1C"/>
</svg>
