<?xml version="1.0" encoding="utf-8"?>
<!-- Generator: Adobe Illustrator 23.1.1, SVG Export Plug-In . SVG Version: 6.00 Build 0)  -->
<svg version="1.1" xmlns="http://www.w3.org/2000/svg" xmlns:xlink="http://www.w3.org/1999/xlink" x="0px" y="0px"
	 viewBox="0 0 67 98" style="enable-background:new 0 0 67 98;" xml:space="preserve">
<style type="text/css">
	.st0{display:none;opacity:0.13;}
	.st1{display:inline;fill:#1C1C1C;}
	.st2{display:inline;fill-rule:evenodd;clip-rule:evenodd;fill:#1C1C1C;}
	.st3{fill-rule:evenodd;clip-rule:evenodd;fill:none;stroke:#1C1C1C;stroke-miterlimit:10;}
	
		.st4{fill-rule:evenodd;clip-rule:evenodd;fill:none;stroke:#1C1C1C;stroke-linecap:round;stroke-linejoin:round;stroke-miterlimit:10;}
	.st5{fill:#1C1C1C;}
	.st6{fill-rule:evenodd;clip-rule:evenodd;fill:#1C1C1C;}
</style>
<g id="Calque_1" class="st0">
	<path class="st1" d="M30.5,34.7c0.7,0,1.2-0.5,1.2-1.2c0-0.7-0.5-1.2-1.2-1.2c-0.7,0-1.2,0.5-1.2,1.2
		C29.3,34.2,29.8,34.7,30.5,34.7z"/>
	<path class="st1" d="M37.1,30.1c0,0.7-0.5,1.2-1.2,1.2c-0.7,0-1.2-0.5-1.2-1.2c0-0.7,0.5-1.2,1.2-1.2
		C36.6,28.9,37.1,29.4,37.1,30.1z"/>
	<path class="st1" d="M36.5,25.6c0.7,0,1.2-0.5,1.2-1.2c0-0.7-0.5-1.2-1.2-1.2s-1.2,0.5-1.2,1.2C35.3,25.1,35.9,25.6,36.5,25.6z"/>
	<path class="st1" d="M31.6,27.9c0,0.7-0.5,1.2-1.2,1.2c-0.7,0-1.2-0.5-1.2-1.2c0-0.7,0.5-1.2,1.2-1.2
		C31.1,26.7,31.6,27.3,31.6,27.9z"/>
	<path class="st1" d="M30.5,23.6c0.7,0,1.2-0.5,1.2-1.2c0-0.7-0.5-1.2-1.2-1.2c-0.7,0-1.2,0.5-1.2,1.2
		C29.3,23.1,29.8,23.6,30.5,23.6z"/>
	<path class="st1" d="M35.5,18.1c0,0.7-0.5,1.2-1.2,1.2c-0.7,0-1.2-0.5-1.2-1.2c0-0.7,0.5-1.2,1.2-1.2
		C34.9,16.9,35.5,17.4,35.5,18.1z"/>
	<path class="st1" d="M26,31.9c0.7,0,1.2-0.5,1.2-1.2c0-0.7-0.5-1.2-1.2-1.2c-0.7,0-1.2,0.5-1.2,1.2C24.8,31.4,25.3,31.9,26,31.9z"
		/>
	<path class="st1" d="M26.1,25c0,0.7-0.5,1.2-1.2,1.2c-0.7,0-1.2-0.5-1.2-1.2c0-0.7,0.5-1.2,1.2-1.2C25.6,23.8,26.1,24.3,26.1,25z"
		/>
	<path class="st1" d="M26.8,20.4c0.7,0,1.2-0.5,1.2-1.2c0-0.7-0.5-1.2-1.2-1.2c-0.7,0-1.2,0.5-1.2,1.2
		C25.6,19.8,26.1,20.4,26.8,20.4z"/>
	<path class="st1" d="M31.9,13.6c0,0.7-0.5,1.2-1.2,1.2c-0.7,0-1.2-0.5-1.2-1.2c0-0.7,0.5-1.2,1.2-1.2
		C31.3,12.4,31.9,12.9,31.9,13.6z"/>
	<path class="st1" d="M-5,50.6c0.7,0,1.2-0.5,1.2-1.2c0-0.7-0.5-1.2-1.2-1.2c-0.7,0-1.2,0.5-1.2,1.2C-6.2,50-5.6,50.6-5,50.6z"/>
	<path class="st1" d="M32.2,85.3c0,0.7-0.5,1.2-1.2,1.2c-0.7,0-1.2-0.5-1.2-1.2c0-0.7,0.5-1.2,1.2-1.2
		C31.7,84.1,32.2,84.6,32.2,85.3z"/>
	<path class="st1" d="M49.1,44.4l14.5-0.1c0.5,0,0.9,0.4,0.9,0.9c0,0.5-0.4,0.8-0.8,0.8l-14.6,0c-0.2,0-0.5-0.1-0.6-0.2
		c-0.1-0.1-0.2-0.4-0.2-0.6C48.2,44.8,48.6,44.4,49.1,44.4z"/>
	<path class="st1" d="M48.2,49.3c0,0.2,0.1,0.5,0.2,0.6c0.1,0.1,0.4,0.2,0.6,0.2l14.6,0c0.5,0,0.8-0.4,0.8-0.8
		c0-0.5-0.4-0.8-0.8-0.8l-14.6,0C48.6,48.5,48.2,48.8,48.2,49.3z"/>
	<path class="st1" d="M48.5,53.9c-0.1-0.1-0.2-0.4-0.2-0.6c0-0.5,0.4-0.8,0.8-0.8l14.6,0c0.5,0,0.8,0.4,0.8,0.8
		c0,0.5-0.4,0.8-0.8,0.8l-14.6,0C48.8,54.2,48.6,54.1,48.5,53.9z"/>
	<path class="st2" d="M69.5,38.7c0.5,0,0.8,0.4,0.8,0.8l0.1,19.5c0,0.5-0.4,0.8-0.8,0.8l-20.3,0c-2.4,0-4.5-1-6.1-2.5
		c-1.4-1.4-2.4-3.5-2.5-5.6l-6.6,0.3l0.2,5.8h0.8c0.5,0,0.8,0.4,0.8,0.8l0.1,27.3c0,1.3-0.5,2.6-1.5,3.5c-1,1-2.2,1.5-3.5,1.5
		c-1.3,0-2.6-0.5-3.5-1.5c-1-1-1.5-2.2-1.5-3.5l0-27.2c0-0.2,0.1-0.4,0.2-0.6c0.2-0.2,0.4-0.2,0.6-0.2l0.8,0l0.2-5.6l-5.7,0.2l0,0.8
		c0,0.5-0.4,0.8-0.8,0.8l-27.2,0c-1.4-0.1-2.6-0.6-3.5-1.5c-0.9-0.9-1.5-2.1-1.5-3.5c0-2.7,2.3-5,5-5l27.1,0c0.5,0,0.8,0.4,0.8,0.8
		l0,0.8l6,0.2l0.3-6.9c-2.5-0.5-4.7-1.7-6.4-3.5c-2.3-2.3-3.7-5.5-3.7-9C18.3,20.4,23.8,7,30.9,7C38.1,7,43.6,20.3,43.6,27
		c0.1,6.1-4.4,11.3-10.1,12.4l0.4,7.2l6.9,0.3c0.2-4.5,4.1-8.1,8.6-8.1L69.5,38.7z M20.1,27c0,5.8,4.6,10.7,10.4,11l1.1,0.1
		C37.3,37.7,42,32.9,42,27c0-4.4-2.7-12.3-6.6-16.1c-1.3-1.3-2.8-2.2-4.4-2.2C25.1,8.6,20.1,21,20.1,27z M-9.1,49.3
		c0.1,1.9,1.6,3.3,3.3,3.3l26.4,0l0-6.7l-26.4,0C-7.6,46.1-9.1,47.6-9.1,49.3z M22.3,47.7l0,3.2l5.7-0.4l0.1-2.6L22.3,47.7z
		 M34.3,86.1l0-26.4l-6.6,0l-0.1,26.4c0,1.8,1.6,3.3,3.3,3.3c1,0,1.7-0.3,2.4-1C34,87.8,34.3,86.9,34.3,86.1z M29.4,58l3.2,0
		l-0.3-6.5l-0.1-3.9l-0.4-7.8l-1.7,0l-0.3,7.6l-0.2,4.2L29.4,58z M33.9,48.3l0.1,2.1l6.6-0.4l0-1.6L33.9,48.3z M42.3,51.4
		c0,3.8,3.1,6.9,6.9,6.9l19.5,0l0-17.9l-19.5,0.1c-3.8,0-6.9,3.1-6.9,6.9L42.3,51.4z"/>
</g>
<g id="spatule">
	<polygon class="st3" points="26,40 24,42 37.4,56.8 40.8,53.5 	"/>
	<path class="st4" d="M41.7,52.6l-5.2,5.2l18.9,18.9c1.4,1.4,3.7,1.4,5.2,0l0,0c1.4-1.4,1.4-3.7,0-5.2L41.7,52.6z"/>
	<polygon class="st3" points="26,40 24,42 37.4,56.8 40.8,53.5 	"/>
	<path class="st3" d="M24.3,24.4c-6.2-6.2-17.9-10-22-5.9S2,34.2,8.2,40.5s12.6,4.7,16.7,0.6S30.5,30.7,24.3,24.4z"/>
	<path class="st5" d="M58.4,74.7c0.5-0.5,0.5-1.2,0-1.7c-0.5-0.5-1.2-0.5-1.7,0c-0.5,0.5-0.5,1.2,0,1.7C57.2,75.2,58,75.2,58.4,74.7
		z"/>
</g>
<g id="Calque_4">
	<path class="st4" d="M27.6,57.7l-5.2-5.2L3.5,71.5c-1.4,1.4-1.4,3.7,0,5.2l0,0c1.4,1.4,3.7,1.4,5.2,0L27.6,57.7z"/>
	<polygon class="st3" points="40.1,42 38.1,40 23.3,53.5 26.7,56.8 	"/>
	<path class="st3" d="M39.1,41"/>
	<path class="st4" d="M66.4,27.9L52.5,41.7c-3.5,3.5-9.2,3.5-12.7,0l-1.5-1.5c-3.5-3.5-3.5-9.2,0-12.7l13.8-13.8L66.4,27.9z"/>
	<path class="st5" d="M7.4,74.5c0.5-0.5,0.5-1.2,0-1.7c-0.5-0.5-1.2-0.5-1.7,0c-0.5,0.5-0.5,1.2,0,1.7C6.2,75,7,75,7.4,74.5z"/>
	<path class="st6" d="M53,23L42.9,33c-0.3,0.3-0.8,0.3-1.2,0l0,0c-0.3-0.3-0.3-0.8,0-1.2l10.1-10.1c0.3-0.3,0.8-0.3,1.2,0h0
		C53.3,22.1,53.3,22.7,53,23z"/>
	<path class="st6" d="M55.9,25.9L45.8,35.9c-0.3,0.3-0.8,0.3-1.2,0l0,0c-0.3-0.3-0.3-0.8,0-1.2l10.1-10.1c0.3-0.3,0.8-0.3,1.2,0v0
		C56.2,25.1,56.2,25.6,55.9,25.9z"/>
	<path class="st6" d="M58.8,28.8L48.7,38.8c-0.3,0.3-0.8,0.3-1.2,0l0,0c-0.3-0.3-0.3-0.8,0-1.2l10.1-10.1c0.3-0.3,0.8-0.3,1.2,0l0,0
		C59.1,28,59.1,28.5,58.8,28.8z"/>
</g>
<g id="dots">
	<path class="st5" d="M21.5,38.7c0.5-0.5,0.5-1.2,0-1.7c-0.5-0.5-1.2-0.5-1.7,0c-0.5,0.5-0.5,1.2,0,1.7
		C20.3,39.2,21.1,39.2,21.5,38.7z"/>
	<path class="st5" d="M23,30.7c0.5,0.5,0.5,1.2,0,1.7c-0.5,0.5-1.2,0.5-1.7,0c-0.5-0.5-0.5-1.2,0-1.7C21.7,30.2,22.5,30.2,23,30.7z"
		/>
	<path class="st5" d="M19.4,28c0.5-0.5,0.5-1.2,0-1.7c-0.5-0.5-1.2-0.5-1.7,0c-0.5,0.5-0.5,1.2,0,1.7C18.2,28.4,18.9,28.4,19.4,28z"
		/>
	<path class="st5" d="M17.6,33.1c0.5,0.5,0.5,1.2,0,1.7c-0.5,0.5-1.2,0.5-1.7,0c-0.5-0.5-0.5-1.2,0-1.7
		C16.4,32.6,17.1,32.6,17.6,33.1z"/>
	<path class="st5" d="M13.7,30.8c0.5-0.5,0.5-1.2,0-1.7c-0.5-0.5-1.2-0.5-1.7,0s-0.5,1.2,0,1.7S13.2,31.3,13.7,30.8z"/>
	<path class="st5" d="M13.3,23.4c0.5,0.5,0.5,1.2,0,1.7c-0.5,0.5-1.2,0.5-1.7,0c-0.5-0.5-0.5-1.2,0-1.7
		C12.1,22.9,12.9,22.9,13.3,23.4z"/>
	<path class="st5" d="M16.4,39.9c0.5-0.5,0.5-1.2,0-1.7c-0.5-0.5-1.2-0.5-1.7,0c-0.5,0.5-0.5,1.2,0,1.7
		C15.2,40.3,15.9,40.3,16.4,39.9z"/>
	<path class="st5" d="M11.6,34.9c0.5,0.5,0.5,1.2,0,1.7c-0.5,0.5-1.2,0.5-1.7,0c-0.5-0.5-0.5-1.2,0-1.7
		C10.4,34.4,11.1,34.4,11.6,34.9z"/>
	<path class="st5" d="M8.8,31.2c0.5-0.5,0.5-1.2,0-1.7c-0.5-0.5-1.2-0.5-1.7,0c-0.5,0.5-0.5,1.2,0,1.7C7.6,31.6,8.3,31.6,8.8,31.2z"
		/>
	<path class="st5" d="M7.6,22.7C8,23.2,8,24,7.6,24.4c-0.5,0.5-1.2,0.5-1.7,0c-0.5-0.5-0.5-1.2,0-1.7C6.4,22.3,7.1,22.3,7.6,22.7z"
		/>
</g>
</svg>
